<svg width="1920" height="1080" viewBox="0 0 1920 1080" xmlns="http://www.w3.org/2000/svg">
  <!-- Wooden table texture -->
  <rect width="1920" height="1080" fill="#8B4513" opacity="0.8"/>
  <pattern id="wood-grain" width="100" height="100" patternUnits="userSpaceOnUse">
    <path d="M0 50 Q25 0, 50 50 T100 50" fill="none" stroke="#6B3410" stroke-width="2" opacity="0.3"/>
    <path d="M0 25 Q25 -25, 50 25 T100 25" fill="none" stroke="#6B3410" stroke-width="2" opacity="0.3"/>
    <path d="M0 75 Q25 25, 50 75 T100 75" fill="none" stroke="#6B3410" stroke-width="2" opacity="0.3"/>
  </pattern>
  <rect width="1920" height="1080" fill="url(#wood-grain)"/>
  
  <!-- Art supplies -->
  <!-- Paintbrush -->
  <path d="M800 300 L900 400" stroke="#654321" stroke-width="10"/>
  <circle cx="890" cy="390" r="15" fill="#8B4513"/>
  
  <!-- Paint palette -->
  <path d="M600 500 Q650 450, 700 500 T800 500" fill="#8B4513"/>
  <circle cx="650" cy="480" r="10" fill="#FF0000"/>
  <circle cx="680" cy="480" r="10" fill="#00FF00"/>
  <circle cx="710" cy="480" r="10" fill="#0000FF"/>
  
  <!-- Pencils -->
  <line x1="400" y1="200" x2="500" y2="300" stroke="#FFD700" stroke-width="8"/>
  <line x1="420" y1="220" x2="520" y2="320" stroke="#CD853F" stroke-width="8"/>
  
  <!-- Paper/Canvas -->
  <rect x="1000" y="300" width="200" height="150" fill="#FFFFFF" opacity="0.8"/>
  
  <!-- Scattered items -->
  <circle cx="300" cy="600" r="5" fill="#FFD700"/>
  <circle cx="320" cy="620" r="5" fill="#FFD700"/>
  <circle cx="340" cy="580" r="5" fill="#FFD700"/>
</svg> 